<?xml version="1.0" encoding="UTF-8"?>
<svg id="Layer_1" data-name="Layer 1" xmlns="http://www.w3.org/2000/svg" viewBox="0 0 256 256">
  <rect width="256" height="256" fill="#425de2"/>
  <g>
    <path d="m166.78,204.98h-72.07c-11.85,0-21.49-9.54-21.49-21.27v-79c0-6.99,3.47-13.53,9.28-17.5l36.03-24.63c7.3-4.99,17.12-4.99,24.42,0l36.03,24.63c5.81,3.97,9.28,10.51,9.28,17.5v79c0,11.73-9.64,21.27-21.48,21.27Zm-36.04-136.68c-2.4,0-4.81.7-6.86,2.1l-36.03,24.63c-3.22,2.2-5.14,5.82-5.14,9.67v79c0,6.5,5.38,11.79,12,11.79h72.07c6.62,0,12-5.29,12-11.79v-79c0-3.85-1.92-7.47-5.14-9.67l-36.04-24.63c-2.05-1.4-4.46-2.1-6.86-2.1Z" fill="#2745af"/>
    <path d="m103.28,119.94c0-3.75,1.22-6.77,3.67-9.08,2.44-2.3,5.72-3.46,9.83-3.46s7.46,1.15,9.87,3.44c2.42,2.29,3.62,5.39,3.62,9.31v3c0,3.75-1.21,6.76-3.62,9.04-2.42,2.28-5.68,3.41-9.79,3.41s-7.37-1.13-9.85-3.39c-2.49-2.26-3.73-5.37-3.73-9.31v-2.96Zm9.04,3.2c0,1.44.4,2.6,1.21,3.5.81.9,1.92,1.34,3.33,1.34,2.92,0,4.37-1.85,4.37-5.55v-2.48c0-1.43-.39-2.61-1.17-3.54s-1.87-1.39-3.29-1.39-2.44.45-3.25,1.35c-.81.9-1.21,2.12-1.21,3.66v3.1Zm7.21,41.24l-6.54-3.29,29.61-47.4,6.54,3.29-29.61,47.4Zm12.58-10.33c0-3.78,1.23-6.8,3.69-9.08s5.73-3.42,9.81-3.42,7.43,1.13,9.87,3.37c2.44,2.25,3.67,5.39,3.67,9.41v2.92c0,3.78-1.21,6.8-3.62,9.08-2.42,2.28-5.69,3.42-9.83,3.42s-7.37-1.13-9.85-3.39c-2.48-2.26-3.73-5.37-3.73-9.31v-3Zm9,3.2c0,1.3.44,2.44,1.33,3.41.89.98,1.97,1.47,3.25,1.47,2.69,0,4.15-1.27,4.37-3.81l.04-4.26c0-1.46-.4-2.64-1.21-3.54-.81-.9-1.9-1.35-3.29-1.35s-2.4.42-3.21,1.26c-.81.84-1.24,1.98-1.29,3.41v3.39Z" fill="#2745af"/>
  </g>
  <path d="m159.22,195.66h-72.07c-11.85,0-21.49-9.54-21.49-21.27v-79c0-6.99,3.47-13.53,9.28-17.5l36.03-24.63c7.3-4.99,17.12-4.99,24.42,0l36.03,24.63c5.81,3.97,9.28,10.51,9.28,17.5v79c0,11.73-9.64,21.27-21.48,21.27ZM123.19,58.98c-2.4,0-4.81.7-6.86,2.1l-36.03,24.63c-3.22,2.2-5.14,5.82-5.14,9.67v79c0,6.5,5.38,11.79,12,11.79h72.07c6.62,0,12-5.29,12-11.79v-79c0-3.85-1.92-7.47-5.14-9.67l-36.04-24.63c-2.05-1.4-4.46-2.1-6.86-2.1Z" fill="#fff"/>
  <path d="m95.73,110.62c0-3.75,1.22-6.77,3.67-9.08,2.44-2.3,5.72-3.46,9.83-3.46s7.46,1.15,9.87,3.44c2.42,2.29,3.62,5.39,3.62,9.31v3c0,3.75-1.21,6.76-3.62,9.04-2.42,2.28-5.68,3.41-9.79,3.41s-7.37-1.13-9.85-3.39c-2.49-2.26-3.73-5.37-3.73-9.31v-2.96Zm9.04,3.2c0,1.44.4,2.6,1.21,3.5.81.9,1.92,1.34,3.33,1.34,2.92,0,4.37-1.85,4.37-5.55v-2.48c0-1.43-.39-2.61-1.17-3.54s-1.87-1.39-3.29-1.39-2.44.45-3.25,1.35c-.81.9-1.21,2.12-1.21,3.66v3.1Zm7.21,41.24l-6.54-3.29,29.61-47.4,6.54,3.29-29.61,47.4Zm12.58-10.33c0-3.78,1.23-6.8,3.69-9.08s5.73-3.42,9.81-3.42,7.43,1.13,9.87,3.37c2.44,2.25,3.67,5.39,3.67,9.41v2.92c0,3.78-1.21,6.8-3.62,9.08-2.42,2.28-5.69,3.42-9.83,3.42s-7.37-1.13-9.85-3.39c-2.48-2.26-3.73-5.37-3.73-9.31v-3Zm9,3.2c0,1.3.44,2.44,1.33,3.41.89.98,1.97,1.47,3.25,1.47,2.69,0,4.15-1.27,4.37-3.81l.04-4.26c0-1.46-.4-2.64-1.21-3.54-.81-.9-1.9-1.35-3.29-1.35s-2.4.42-3.21,1.26c-.81.84-1.24,1.98-1.29,3.41v3.39Z" fill="#fff"/>
</svg>